<svg width="107" height="66" viewBox="0 0 107 66" fill="none" xmlns="http://www.w3.org/2000/svg">
<line x1="63.75" y1="27.2104" x2="69.3996" y2="27.2104" stroke="#01588B" stroke-width="3"/>
<line x1="74.5" y1="44.8638" x2="74.5" y2="22.2495" stroke="#01588B" stroke-width="2"/>
<line x1="63.75" y1="40.1543" x2="69.3996" y2="40.1543" stroke="#01588B" stroke-width="3"/>
<line x1="80.2" y1="27.2104" x2="99" y2="27.2104" stroke="#01588B" stroke-width="3"/>
<line x1="80.2" y1="40.1328" x2="99" y2="40.1328" stroke="#01588B" stroke-width="3"/>
<rect x="5" y="3.94238" width="58.75" height="58.1509" rx="17" fill="#01588B"/>
<path d="M73.2333 21.5957H76.2C77.5807 21.5957 78.7 22.715 78.7 24.0957V43.0174C78.7 44.3981 77.5807 45.5174 76.2 45.5174H73.2333C71.8526 45.5174 70.7333 44.3981 70.7333 43.0174V40.0178V39.9806V39.9435V39.9065V39.8695V39.8325V39.7956V39.7588V39.722V39.6853V39.6486V39.612V39.5754V39.5388V39.5023V39.4659V39.4295V39.3932V39.3569V39.3206V39.2845V39.2483V39.2122V39.1762V39.1402V39.1042V39.0683V39.0325V38.9967V38.9609V38.9252V38.8895V38.8539V38.8183V38.7828V38.7473V38.7119V38.6765V38.6412V38.6059V38.5706V38.5354V38.5003V38.4652V38.4301V38.3951V38.3601V38.3252V38.2903V38.2554V38.2206V38.1859V38.1511V38.1165V38.0818V38.0473V38.0127V37.9782V37.9438V37.9093V37.875V37.8406V37.8064V37.7721V37.7379V37.7037V37.6696V37.6355V37.6015V37.5675V37.5335V37.4996V37.4657V37.4319V37.3981V37.3643V37.3306V37.2969V37.2633V37.2297V37.1961V37.1626V37.1291V37.0957V37.0623V37.0289V36.9956V36.9623V36.929V36.8958V36.8626V36.8295V36.7964V36.7633V36.7303V36.6973V36.6643V36.6314V36.5985V36.5656V36.5328V36.5V36.4673V36.4346V36.4019V36.3692V36.3366V36.3041V36.2715V36.239V36.2066V36.1741V36.1417V36.1093V36.077V36.0447V36.0124V35.9802V35.948V35.9158V35.8837V35.8516V35.8195V35.7874V35.7554V35.7234V35.6915V35.6596V35.6277V35.5958V35.564V35.5322V35.5004V35.4687V35.437V35.4053V35.3737V35.3421V35.3105V35.2789V35.2474V35.2159V35.1844V35.153V35.1215V35.0902V35.0588V35.0275V34.9962V34.9649V34.9336V34.9024V34.8712V34.8401V34.8089V34.7778V34.7467V34.7157V34.6846V34.6536V34.6226V34.5917V34.5607V34.5298V34.4989V34.4681V34.4372V34.4064V34.3757V34.3449V34.3142V34.2834V34.2528V34.2221V34.1914V34.1608V34.1302V34.0997V34.0691V34.0386V34.0081V33.9776V33.9471V33.9167V33.8863V33.8559V33.8255V33.7951V33.7648V33.7345V33.7042V33.6739V33.6437V33.6135V33.5832V33.5531V33.5229V33.4927V33.4626V33.4325V33.4024V33.3723V33.3423V33.3122V33.2822V33.2522V33.2222V33.1923V33.1623V33.1324V33.1025V33.0726V33.0427V33.0128V32.983V32.9532V32.9234V32.8936V32.8638V32.834V32.8043V32.7745V32.7448V32.7151V32.6854V32.6558V32.6261V32.5965V32.5668V32.5372V32.5076V32.478V32.4485V32.4189V32.3894V32.3598V32.3303V32.3008V32.2713V32.2418V32.2124V32.1829V32.1535V32.124V32.0946V32.0652V32.0358V32.0064V31.9771V31.9477V31.9183V31.889V31.8597V31.8303V31.801V31.7717V31.7424V31.7132V31.6839V31.6546V31.6254V31.5961V31.5669V31.5377V31.5084V31.4792V31.45V31.4208V31.3917V31.3625V31.3333V31.3041V31.275V31.2458V31.2167V31.1875V31.1584V31.1293V31.1002V31.0711V31.042V31.0129V30.9838V30.9547V30.9256V30.8965V30.8674V30.8384V30.8093V30.7802V30.7512V30.7221V30.6931V30.664V30.635V30.6059V30.5769V30.5479V30.5188V30.4898V30.4608V30.4318V30.4027V30.3737V30.3447V30.3157V30.2867V30.2577V30.2286V30.1996V30.1706V30.1416V30.1126V30.0836V30.0546V30.0256V29.9966V29.9676V29.9386V29.9095V29.8805V29.8515V29.8225V29.7935V29.7645V29.7355V29.7064V29.6774V29.6484V29.6194V29.5903V29.5613V29.5323V29.5032V29.4742V29.4452V29.4161V29.3871V29.358V29.3289V29.2999V29.2708V29.2417V29.2127V29.1836V29.1545V29.1254V29.0963V29.0672V29.0381V29.009V28.9799V28.9507V28.9216V28.8925V28.8633V28.8342V28.805V28.7758V28.7467V28.7175V28.6883V28.6591V28.6299V28.6007V28.5715V28.5422V28.513V28.4838V28.4545V28.4252V28.396V28.3667V28.3374V28.3081V28.2788V28.2495V28.2201V28.1908V28.1614V28.1321V28.1027V28.0733V28.0439V28.0145V27.9851V27.9556V27.9262V27.8967V27.8673V27.8378V27.8083V27.7788V27.7493V27.7197V27.6902V27.6606V27.631V27.6015V27.5719V27.5422V27.5126V27.483V27.4533V27.4236V27.394V27.3642V27.3345V27.3048V27.275V27.2453V27.2155V27.1857V27.1559V27.1261V27.0962V27.0663V27.0365V27.0066V26.9767V26.9467V26.9168V26.8868V26.8568V26.8268V26.7968V26.7668V26.7367V26.7066V26.6765V26.6464V26.6163V26.5861V26.5559V26.5258V26.4955V26.4653V26.4351V26.4048V26.3745V26.3442V26.3138V26.2835V26.2531V26.2227V26.1923V26.1618V26.1314V26.1009V26.0704V26.0398V26.0093V25.9787V25.9481V25.9175V25.8868V25.8562V25.8255V25.7948V25.764V25.7333V25.7025V25.6717V25.6408V25.61V25.5791V25.5482V25.5172V25.4863V25.4553V25.4243V25.3932V25.3622V25.3311V25.2999V25.2688V25.2376V25.2064V25.1752V25.1439V25.1127V25.0814V25.05V25.0187V24.9873V24.9558V24.9244V24.8929V24.8614V24.8299V24.7983V24.7667V24.7351V24.7035V24.6718V24.6401V24.6083V24.5766V24.5448V24.5129V24.4811V24.4492V24.4172V24.3853V24.3533V24.3213V24.2892V24.2572V24.225V24.1929V24.1607V24.1285V24.0963C70.7333 22.7153 71.8529 21.5957 73.2333 21.5957Z" stroke="#01588B" stroke-width="3"/>
</svg>
