<svg width="78" height="78" viewBox="0 0 78 78" fill="none" xmlns="http://www.w3.org/2000/svg">
<circle cx="22.3368" cy="13.5788" r="8.87368" stroke="#01588B" stroke-width="2"/>
<rect x="20.5158" y="4" width="3.64211" height="7.16842" rx="1" stroke="#01588B" stroke-width="2"/>
<line x1="13.1684" y1="11.8735" x2="30.8" y2="11.8735" stroke="#01588B" stroke-width="2"/>
<path d="M13.1684 13.2261C16.6166 14.6842 19.108 15.1482 21.9599 15.3076C22.4452 15.3348 22.9331 15.3176 23.4157 15.259C26.6316 14.8682 27.8823 14.3714 30.8 13.2261" stroke="#01588B" stroke-width="2"/>
<line x1="13.1684" y1="23.8633" x2="51.9579" y2="23.8633" stroke="#01588B" stroke-width="2"/>
<line x1="12.1684" y1="70" x2="12.1684" y2="30.5053" stroke="#01588B" stroke-width="2"/>
<line x1="32.621" y1="69.2949" x2="32.621" y2="29.8002" stroke="#01588B" stroke-width="2"/>
<line x1="51.9579" y1="31.5054" x2="33.6211" y2="31.5054" stroke="#01588B" stroke-width="2"/>
<line x1="65.3579" y1="8.23145" x2="44.9053" y2="8.23145" stroke="#01588B" stroke-width="2"/>
<line x1="48.7263" y1="13.5791" x2="48.7263" y2="19.9265" stroke="#01588B" stroke-width="2"/>
<line x1="52.9579" y1="13.5791" x2="52.9579" y2="19.9265" stroke="#01588B" stroke-width="2"/>
<line x1="57.1895" y1="13.5791" x2="57.1895" y2="19.9265" stroke="#01588B" stroke-width="2"/>
<line x1="61.4211" y1="13.5791" x2="61.4211" y2="19.9265" stroke="#01588B" stroke-width="2"/>
<line x1="65.6526" y1="13.5791" x2="65.6526" y2="19.9265" stroke="#01588B" stroke-width="2"/>
<line x1="62.3354" y1="23.6113" x2="58.1039" y2="26.0798" stroke="#01588B" stroke-width="2"/>
<line x1="57.3986" y1="31.3691" x2="53.167" y2="33.8376" stroke="#01588B" stroke-width="2"/>
<line x1="62.3354" y1="37.0112" x2="58.1039" y2="39.4797" stroke="#01588B" stroke-width="2"/>
<line x1="57.3986" y1="44.7691" x2="53.167" y2="47.2375" stroke="#01588B" stroke-width="2"/>
<line x1="62.3354" y1="50.4111" x2="58.1039" y2="52.8796" stroke="#01588B" stroke-width="2"/>
<line x1="57.3986" y1="58.169" x2="53.167" y2="60.6374" stroke="#01588B" stroke-width="2"/>
<line x1="62.3354" y1="63.811" x2="58.1039" y2="66.2795" stroke="#01588B" stroke-width="2"/>
<line x1="73.8211" y1="70.2949" x2="71" y2="70.2949" stroke="#01588B" stroke-width="2"/>
<line x1="68.1789" y1="8.34717" x2="71.7053" y2="8.34717" stroke="#01588B" stroke-width="2"/>
<line x1="68.8842" y1="70.2949" x2="4" y2="70.2949" stroke="#01588B" stroke-width="2"/>
<line x1="62.1263" y1="20.6313" x2="62.1263" y2="69.2945" stroke="#01588B" stroke-width="2"/>
<line x1="52.9579" y1="20.6313" x2="52.9579" y2="69.2945" stroke="#01588B" stroke-width="2"/>
<path d="M13.521 23.8052C11.0526 24.0403 5.97473 25.9915 5.41052 31.9157V44.6104C5.64561 46.2561 7.24421 49.5473 11.7579 49.5473" stroke="#01588B" stroke-width="2" stroke-linecap="square" stroke-linejoin="round"/>
<path d="M12.1105 32.2683C12.9333 31.9157 14.5789 30.9283 14.5789 29.7999C14.5789 28.6715 14.5789 25.3332 14.5789 23.8052" stroke="#01588B" stroke-width="2" stroke-linecap="square" stroke-linejoin="round"/>
<path d="M32.2105 31.9156C31.5053 31.5924 30.0947 30.6873 30.0947 29.6529C30.0947 28.6185 30.0947 25.5584 30.0947 24.1577" stroke="#01588B" stroke-width="2" stroke-linecap="square" stroke-linejoin="round"/>
<path d="M12.1105 52.721C13.8737 53.0737 17.2589 52.58 16.6947 47.7842" stroke="#01588B" stroke-width="2" stroke-linecap="square" stroke-linejoin="round"/>
<path d="M31.9205 52.3685C30.1574 52.7211 26.7721 52.2274 27.3363 47.4316" stroke="#01588B" stroke-width="2" stroke-linecap="square" stroke-linejoin="round"/>
<path d="M43.8474 57.3052C45.0228 57.1877 47.6558 57.5873 48.7842 60.1263" stroke="#01588B" stroke-width="2" stroke-linecap="square" stroke-linejoin="round"/>
<path d="M71.7053 57.3233C70.5298 57.2058 67.8968 57.6054 66.7684 60.1444" stroke="#01588B" stroke-width="2" stroke-linecap="square" stroke-linejoin="round"/>
<path d="M44.9053 65.072C46.0807 65.0136 48.7137 65.2121 49.8421 66.4735" stroke="#01588B" stroke-width="2" stroke-linecap="square" stroke-linejoin="round"/>
<path d="M71 65.072C69.8246 65.0136 67.1916 65.2121 66.0632 66.4735" stroke="#01588B" stroke-width="2" stroke-linecap="square" stroke-linejoin="round"/>
<line x1="19.0337" y1="24.4919" x2="21.8548" y2="31.5445" stroke="#01588B" stroke-width="2"/>
<line y1="-1" x2="7.59592" y2="-1" transform="matrix(-0.371391 0.928477 0.928477 0.371391 25.8632 24.8633)" stroke="#01588B" stroke-width="2"/>
<line x1="21.9263" y1="31.2104" x2="21.9263" y2="48.1368" stroke="#01588B" stroke-width="2"/>
<line x1="21.9263" y1="52.3687" x2="21.9263" y2="69.295" stroke="#01588B" stroke-width="2"/>
<line x1="5.41052" y1="45.021" x2="12.4632" y2="45.021" stroke="#01588B" stroke-width="2"/>
<line x1="48.8421" y1="31.2104" x2="48.8421" y2="24.1578" stroke="#01588B" stroke-width="2"/>
<line x1="12.4632" y1="38.6738" x2="32.2105" y2="38.6738" stroke="#01588B" stroke-width="2"/>
<line x1="12.4632" y1="42.9053" x2="32.2105" y2="42.9053" stroke="#01588B" stroke-width="2"/>
<line x1="11.7579" y1="47.1367" x2="31.5053" y2="47.1367" stroke="#01588B" stroke-width="2"/>
<line x1="11.7579" y1="65.4736" x2="31.5053" y2="65.4736" stroke="#01588B" stroke-width="2"/>
<rect x="44.4947" y="4" width="26.2105" height="15.6316" stroke="#01588B" stroke-width="2"/>
</svg>
